<?xml version="1.0" encoding="UTF-8" standalone="no"?>
<!DOCTYPE svg PUBLIC "-//W3C//DTD SVG 1.1//EN"
 "http://www.w3.org/Graphics/SVG/1.1/DTD/svg11.dtd">
<!-- Generated by graphviz version 2.28.0 (20130109.1153)
 -->
<!-- Title: DoxGen_States Pages: 1 -->
<svg width="718pt" height="284pt"
 viewBox="0.00 0.00 718.00 284.00" xmlns="http://www.w3.org/2000/svg" xmlns:xlink="http://www.w3.org/1999/xlink">
<g id="graph1" class="graph" transform="scale(1 1) rotate(0) translate(4 280)">
<title>DoxGen_States</title>
<polygon fill="white" stroke="white" points="-4,5 -4,-280 715,-280 715,5 -4,5"/>
<g id="graph3" class="cluster"><title>cluster0</title>
<polygon fill="none" stroke="black" points="8,-8 8,-185 702,-185 702,-8 8,-8"/>
<text text-anchor="middle" x="355" y="-169.8" font-family="Times,serif" font-size="14.00">States</text>
</g>
<g id="graph6" class="cluster"><title>cluster1</title>
<polygon fill="none" stroke="black" points="18,-193 18,-268 697,-268 697,-193 18,-193"/>
<text text-anchor="middle" x="357.5" y="-252.8" font-family="Times,serif" font-size="14.00">Legend</text>
</g>
<!-- t -->
<g id="node2" class="node"><title>t</title>
<polygon fill="lightgrey" stroke="lightgrey" points="78,-129 28,-129 16,-117 16,-105 28,-93 78,-93 90,-105 90,-117 78,-129"/>
<path fill="lightgrey" stroke="lightgrey" d="M28,-129C22,-129 16,-123 16,-117"/>
<path fill="lightgrey" stroke="lightgrey" d="M16,-105C16,-99 22,-93 28,-93"/>
<path fill="lightgrey" stroke="lightgrey" d="M78,-93C84,-93 90,-99 90,-105"/>
<path fill="lightgrey" stroke="lightgrey" d="M90,-117C90,-123 84,-129 78,-129"/>
<polyline fill="none" stroke="black" points="78,-129 28,-129 "/>
<path fill="none" stroke="black" d="M28,-129C22,-129 16,-123 16,-117"/>
<polyline fill="none" stroke="black" points="16,-117 16,-105 "/>
<path fill="none" stroke="black" d="M16,-105C16,-99 22,-93 28,-93"/>
<polyline fill="none" stroke="black" points="28,-93 78,-93 "/>
<path fill="none" stroke="black" d="M78,-93C84,-93 90,-99 90,-105"/>
<polyline fill="none" stroke="black" points="90,-105 90,-117 "/>
<path fill="none" stroke="black" d="M90,-117C90,-123 84,-129 78,-129"/>
<text text-anchor="middle" x="53" y="-107.3" font-family="Times,serif" font-size="14.00">Templates</text>
</g>
<!-- l -->
<g id="node3" class="node"><title>l</title>
<polygon fill="lightgrey" stroke="lightgrey" points="196,-129 166,-129 154,-117 154,-105 166,-93 196,-93 208,-105 208,-117 196,-129"/>
<path fill="lightgrey" stroke="lightgrey" d="M166,-129C160,-129 154,-123 154,-117"/>
<path fill="lightgrey" stroke="lightgrey" d="M154,-105C154,-99 160,-93 166,-93"/>
<path fill="lightgrey" stroke="lightgrey" d="M196,-93C202,-93 208,-99 208,-105"/>
<path fill="lightgrey" stroke="lightgrey" d="M208,-117C208,-123 202,-129 196,-129"/>
<polyline fill="none" stroke="black" points="196,-129 166,-129 "/>
<path fill="none" stroke="black" d="M166,-129C160,-129 154,-123 154,-117"/>
<polyline fill="none" stroke="black" points="154,-117 154,-105 "/>
<path fill="none" stroke="black" d="M154,-105C154,-99 160,-93 166,-93"/>
<polyline fill="none" stroke="black" points="166,-93 196,-93 "/>
<path fill="none" stroke="black" d="M196,-93C202,-93 208,-99 208,-105"/>
<polyline fill="none" stroke="black" points="208,-105 208,-117 "/>
<path fill="none" stroke="black" d="M208,-117C208,-123 202,-129 196,-129"/>
<text text-anchor="middle" x="181" y="-107.3" font-family="Times,serif" font-size="14.00">List</text>
</g>
<!-- t&#45;&gt;l -->
<g id="edge5" class="edge"><title>t&#45;&gt;l</title>
<path fill="none" stroke="black" stroke-dasharray="5,2" d="M90.1065,-110C106.969,-110 126.995,-110 143.861,-110"/>
<path fill="none" stroke="blue" stroke-dasharray="5,2" d="M90.1065,-112C106.969,-112 126.995,-112 143.861,-112"/>
<polygon fill="black" stroke="black" points="143.898,-114.5 153.897,-111 143.897,-107.5 143.898,-114.5"/>
</g>
<!-- f -->
<g id="node4" class="node"><title>f</title>
<polygon fill="lightyellow" stroke="lightyellow" points="324.5,-36 381.5,-36 393.5,-48 393.5,-70 381.5,-82 324.5,-82 312.5,-70 312.5,-48 324.5,-36"/>
<path fill="lightyellow" stroke="lightyellow" d="M381.5,-36C387.5,-36 393.5,-42 393.5,-48"/>
<path fill="lightyellow" stroke="lightyellow" d="M393.5,-70C393.5,-76 387.5,-82 381.5,-82"/>
<path fill="lightyellow" stroke="lightyellow" d="M324.5,-82C318.5,-82 312.5,-76 312.5,-70"/>
<path fill="lightyellow" stroke="lightyellow" d="M312.5,-48C312.5,-42 318.5,-36 324.5,-36"/>
<polyline fill="none" stroke="black" points="324.5,-36 381.5,-36 "/>
<path fill="none" stroke="black" d="M381.5,-36C387.5,-36 393.5,-42 393.5,-48"/>
<polyline fill="none" stroke="black" points="393.5,-48 393.5,-70 "/>
<path fill="none" stroke="black" d="M393.5,-70C393.5,-76 387.5,-82 381.5,-82"/>
<polyline fill="none" stroke="black" points="381.5,-82 324.5,-82 "/>
<path fill="none" stroke="black" d="M324.5,-82C318.5,-82 312.5,-76 312.5,-70"/>
<polyline fill="none" stroke="black" points="312.5,-70 312.5,-48 "/>
<path fill="none" stroke="black" d="M312.5,-48C312.5,-42 318.5,-36 324.5,-36"/>
<text text-anchor="middle" x="353" y="-66.8" font-family="Times,serif" font-size="14.00">Form</text>
<polyline fill="none" stroke="black" points="312.5,-59 393.5,-59 "/>
<text text-anchor="middle" x="333.5" y="-43.8" font-family="Times,serif" font-size="14.00">New</text>
<polyline fill="none" stroke="black" points="354.5,-36 354.5,-59 "/>
<text text-anchor="middle" x="374" y="-43.8" font-family="Times,serif" font-size="14.00">Edit</text>
</g>
<!-- l&#45;&gt;f -->
<g id="edge15" class="edge"><title>l&#45;&gt;f:c</title>
<path fill="none" stroke="black" stroke-dasharray="5,2" d="M207.784,-102.011C236.216,-92.951 279.584,-78.1559 293.417,-68.1872 299.261,-64.4284 299.885,-57.2401 302.373,-51.9587"/>
<path fill="none" stroke="blue" stroke-dasharray="5,2" d="M208.392,-103.916C236.862,-94.8439 280.229,-80.0488 294.583,-69.8128 301.253,-64.6014 301.877,-57.413 304.172,-52.8314"/>
<polygon fill="black" stroke="black" points="305.334,-55.2353 312,-47 301.654,-49.2812 305.334,-55.2353"/>
<text text-anchor="middle" x="260" y="-100.8" font-family="Times,serif" font-size="14.00">New</text>
</g>
<!-- r -->
<g id="node5" class="node"><title>r</title>
<polygon fill="lightgrey" stroke="lightgrey" points="536,-103 506,-103 494,-91 494,-79 506,-67 536,-67 548,-79 548,-91 536,-103"/>
<path fill="lightgrey" stroke="lightgrey" d="M506,-103C500,-103 494,-97 494,-91"/>
<path fill="lightgrey" stroke="lightgrey" d="M494,-79C494,-73 500,-67 506,-67"/>
<path fill="lightgrey" stroke="lightgrey" d="M536,-67C542,-67 548,-73 548,-79"/>
<path fill="lightgrey" stroke="lightgrey" d="M548,-91C548,-97 542,-103 536,-103"/>
<polyline fill="none" stroke="black" points="536,-103 506,-103 "/>
<path fill="none" stroke="black" d="M506,-103C500,-103 494,-97 494,-91"/>
<polyline fill="none" stroke="black" points="494,-91 494,-79 "/>
<path fill="none" stroke="black" d="M494,-79C494,-73 500,-67 506,-67"/>
<polyline fill="none" stroke="black" points="506,-67 536,-67 "/>
<path fill="none" stroke="black" d="M536,-67C542,-67 548,-73 548,-79"/>
<polyline fill="none" stroke="black" points="548,-79 548,-91 "/>
<path fill="none" stroke="black" d="M548,-91C548,-97 542,-103 536,-103"/>
<text text-anchor="middle" x="521" y="-81.3" font-family="Times,serif" font-size="14.00">Read</text>
</g>
<!-- l&#45;&gt;r -->
<g id="edge7" class="edge"><title>l&#45;&gt;r</title>
<path fill="none" stroke="black" stroke-dasharray="5,2" d="M208.396,-122.452C261.935,-143.846 385.859,-183.919 476,-140 487.669,-134.315 485.907,-127.149 494,-117 495.45,-115.181 496.952,-113.308 498.467,-111.425"/>
<polygon fill="black" stroke="black" points="501.528,-113.206 505.093,-103.23 496.084,-108.805 501.528,-113.206"/>
</g>
<!-- f&#45;&gt;l -->
<g id="edge19" class="edge"><title>f:c&#45;&gt;l</title>
<path fill="none" stroke="black" stroke-dasharray="5,2" d="M312,-48C273.024,-47.6824 259.007,-32.67 226.471,-50.8821 212.985,-57.9787 202.459,-71.826 195.241,-84.3601"/>
<path fill="none" stroke="blue" stroke-dasharray="5,2" d="M312,-46C274.485,-46.3176 260.469,-31.3051 225.529,-49.1179 211.393,-56.7684 200.867,-70.6158 193.509,-83.361"/>
<polygon fill="black" stroke="black" points="191.256,-82.2702 189.639,-92.7409 197.433,-85.564 191.256,-82.2702"/>
<text text-anchor="middle" x="260" y="-53.8" font-family="Times,serif" font-size="14.00">Cancel.New</text>
</g>
<!-- f&#45;&gt;r -->
<g id="edge21" class="edge"><title>f:u&#45;&gt;r</title>
<path fill="none" stroke="black" stroke-dasharray="5,2" d="M394,-47C403.152,-47 403.502,-53.6022 412,-57 435.184,-66.2705 462.404,-73.3043 483.716,-78.0034"/>
<polygon fill="black" stroke="black" points="483.151,-81.4615 493.661,-80.1223 484.61,-74.6151 483.151,-81.4615"/>
<text text-anchor="middle" x="444" y="-80.8" font-family="Times,serif" font-size="14.00">Cancel.Edit</text>
</g>
<!-- f&#45;&gt;r -->
<g id="edge24" class="edge"><title>f&#45;&gt;r</title>
<path fill="none" stroke="black" d="M384.096,-82.0319C392.664,-87.3412 402.312,-92.2379 412,-95 435.343,-101.655 462.561,-99.0728 483.834,-94.8681"/>
<polygon fill="black" stroke="black" points="484.73,-98.2551 493.756,-92.707 483.24,-91.4154 484.73,-98.2551"/>
<text text-anchor="middle" x="444" y="-103.8" font-family="Times,serif" font-size="14.00">Save</text>
</g>
<!-- v -->
<g id="node6" class="node"><title>v</title>
<polygon fill="lightgrey" stroke="lightgrey" points="681.5,-66 642.5,-66 630.5,-54 630.5,-42 642.5,-30 681.5,-30 693.5,-42 693.5,-54 681.5,-66"/>
<path fill="lightgrey" stroke="lightgrey" d="M642.5,-66C636.5,-66 630.5,-60 630.5,-54"/>
<path fill="lightgrey" stroke="lightgrey" d="M630.5,-42C630.5,-36 636.5,-30 642.5,-30"/>
<path fill="lightgrey" stroke="lightgrey" d="M681.5,-30C687.5,-30 693.5,-36 693.5,-42"/>
<path fill="lightgrey" stroke="lightgrey" d="M693.5,-54C693.5,-60 687.5,-66 681.5,-66"/>
<polyline fill="none" stroke="black" points="681.5,-66 642.5,-66 "/>
<path fill="none" stroke="black" d="M642.5,-66C636.5,-66 630.5,-60 630.5,-54"/>
<polyline fill="none" stroke="black" points="630.5,-54 630.5,-42 "/>
<path fill="none" stroke="black" d="M630.5,-42C630.5,-36 636.5,-30 642.5,-30"/>
<polyline fill="none" stroke="black" points="642.5,-30 681.5,-30 "/>
<path fill="none" stroke="black" d="M681.5,-30C687.5,-30 693.5,-36 693.5,-42"/>
<polyline fill="none" stroke="black" points="693.5,-42 693.5,-54 "/>
<path fill="none" stroke="black" d="M693.5,-54C693.5,-60 687.5,-66 681.5,-66"/>
<text text-anchor="middle" x="662" y="-44.3" font-family="Times,serif" font-size="14.00">preView</text>
</g>
<!-- f&#45;&gt;v -->
<g id="edge28" class="edge"><title>f&#45;&gt;v</title>
<path fill="none" stroke="black" d="M393.504,-38.6777C399.562,-36.3342 405.849,-34.3156 412,-33 484.156,-17.567 570.561,-29.3212 620.287,-38.9099"/>
<polygon fill="black" stroke="black" points="619.831,-42.3879 630.323,-40.9126 621.201,-35.5232 619.831,-42.3879"/>
<text text-anchor="middle" x="521" y="-32.8" font-family="Times,serif" font-size="14.00">Preview</text>
</g>
<!-- p -->
<g id="node7" class="node"><title>p</title>
<polygon fill="lightgrey" stroke="lightgrey" points="677,-133 647,-133 635,-121 635,-109 647,-97 677,-97 689,-109 689,-121 677,-133"/>
<path fill="lightgrey" stroke="lightgrey" d="M647,-133C641,-133 635,-127 635,-121"/>
<path fill="lightgrey" stroke="lightgrey" d="M635,-109C635,-103 641,-97 647,-97"/>
<path fill="lightgrey" stroke="lightgrey" d="M677,-97C683,-97 689,-103 689,-109"/>
<path fill="lightgrey" stroke="lightgrey" d="M689,-121C689,-127 683,-133 677,-133"/>
<polyline fill="none" stroke="black" points="677,-133 647,-133 "/>
<path fill="none" stroke="black" d="M647,-133C641,-133 635,-127 635,-121"/>
<polyline fill="none" stroke="black" points="635,-121 635,-109 "/>
<path fill="none" stroke="black" d="M635,-109C635,-103 641,-97 647,-97"/>
<polyline fill="none" stroke="black" points="647,-97 677,-97 "/>
<path fill="none" stroke="black" d="M677,-97C683,-97 689,-103 689,-109"/>
<polyline fill="none" stroke="black" points="689,-109 689,-121 "/>
<path fill="none" stroke="black" d="M689,-121C689,-127 683,-133 677,-133"/>
<text text-anchor="middle" x="662" y="-111.3" font-family="Times,serif" font-size="14.00">Print</text>
</g>
<!-- f&#45;&gt;p -->
<g id="edge26" class="edge"><title>f&#45;&gt;p</title>
<path fill="none" stroke="black" d="M370.112,-81.5684C380.346,-94.905 395.219,-110.617 412.402,-118.085 482.059,-148.873 574.521,-135.046 624.616,-123.657"/>
<path fill="none" stroke="blue" d="M368.525,-82.7864C378.893,-96.2799 393.767,-111.992 411.598,-119.915 482.355,-150.851 574.817,-137.024 625.059,-125.607"/>
<polygon fill="black" stroke="black" points="625.955,-127.964 634.878,-122.252 624.34,-121.153 625.955,-127.964"/>
<text text-anchor="middle" x="521" y="-141.8" font-family="Times,serif" font-size="14.00">Print</text>
</g>
<!-- r&#45;&gt;l -->
<g id="edge9" class="edge"><title>r&#45;&gt;l</title>
<path fill="none" stroke="black" stroke-dasharray="5,2" d="M501.934,-103.295C494.545,-109.537 485.502,-115.757 476,-119 429.443,-134.892 286.405,-122.328 218.506,-115.142"/>
<polygon fill="black" stroke="black" points="218.597,-111.631 208.28,-114.04 217.847,-118.591 218.597,-111.631"/>
<text text-anchor="middle" x="353" y="-130.8" font-family="Times,serif" font-size="14.00">Delete</text>
</g>
<!-- r&#45;&gt;f -->
<g id="edge17" class="edge"><title>r&#45;&gt;f:u</title>
<path fill="none" stroke="black" stroke-dasharray="5,2" d="M507.126,-66.9251C499.317,-57.5747 488.463,-47.0786 476,-42 449.659,-31.266 440.184,-38.1583 412,-42 408.401,-42.4906 406.095,-43.509 403.944,-44.4994"/>
<polygon fill="black" stroke="black" points="402.844,-41.1668 394,-47 404.552,-47.9555 402.844,-41.1668"/>
<text text-anchor="middle" x="444" y="-45.8" font-family="Times,serif" font-size="14.00">Edit</text>
</g>
<!-- r&#45;&gt;v -->
<g id="edge11" class="edge"><title>r&#45;&gt;v</title>
<path fill="none" stroke="black" stroke-dasharray="5,2" d="M548.145,-78.0406C568.422,-72.643 596.898,-65.0631 620.172,-58.8679"/>
<polygon fill="black" stroke="black" points="621.356,-62.1747 630.119,-56.2201 619.555,-55.4103 621.356,-62.1747"/>
<text text-anchor="middle" x="589" y="-77.8" font-family="Times,serif" font-size="14.00">Preview</text>
</g>
<!-- r&#45;&gt;p -->
<g id="edge13" class="edge"><title>r&#45;&gt;p</title>
<path fill="none" stroke="black" stroke-dasharray="5,2" d="M548.145,-90.6428C569.889,-95.3359 601.062,-102.064 625.137,-107.26"/>
<polygon fill="black" stroke="black" points="624.459,-110.694 634.972,-109.383 625.936,-103.852 624.459,-110.694"/>
<text text-anchor="middle" x="589" y="-107.8" font-family="Times,serif" font-size="14.00">Print</text>
</g>
<!-- l0 -->
<g id="node8" class="node"><title>l0</title>
<polygon fill="lightgrey" stroke="lightgrey" points="68,-237 38,-237 26,-225 26,-213 38,-201 68,-201 80,-213 80,-225 68,-237"/>
<path fill="lightgrey" stroke="lightgrey" d="M38,-237C32,-237 26,-231 26,-225"/>
<path fill="lightgrey" stroke="lightgrey" d="M26,-213C26,-207 32,-201 38,-201"/>
<path fill="lightgrey" stroke="lightgrey" d="M68,-201C74,-201 80,-207 80,-213"/>
<path fill="lightgrey" stroke="lightgrey" d="M80,-225C80,-231 74,-237 68,-237"/>
<polyline fill="none" stroke="black" points="68,-237 38,-237 "/>
<path fill="none" stroke="black" d="M38,-237C32,-237 26,-231 26,-225"/>
<polyline fill="none" stroke="black" points="26,-225 26,-213 "/>
<path fill="none" stroke="black" d="M26,-213C26,-207 32,-201 38,-201"/>
<polyline fill="none" stroke="black" points="38,-201 68,-201 "/>
<path fill="none" stroke="black" d="M68,-201C74,-201 80,-207 80,-213"/>
<polyline fill="none" stroke="black" points="80,-213 80,-225 "/>
<path fill="none" stroke="black" d="M80,-225C80,-231 74,-237 68,-237"/>
<text text-anchor="middle" x="53" y="-215.3" font-family="Times,serif" font-size="14.00">1</text>
</g>
<!-- l1 -->
<g id="node9" class="node"><title>l1</title>
<polygon fill="lightgrey" stroke="lightgrey" points="196,-237 166,-237 154,-225 154,-213 166,-201 196,-201 208,-213 208,-225 196,-237"/>
<path fill="lightgrey" stroke="lightgrey" d="M166,-237C160,-237 154,-231 154,-225"/>
<path fill="lightgrey" stroke="lightgrey" d="M154,-213C154,-207 160,-201 166,-201"/>
<path fill="lightgrey" stroke="lightgrey" d="M196,-201C202,-201 208,-207 208,-213"/>
<path fill="lightgrey" stroke="lightgrey" d="M208,-225C208,-231 202,-237 196,-237"/>
<polyline fill="none" stroke="black" points="196,-237 166,-237 "/>
<path fill="none" stroke="black" d="M166,-237C160,-237 154,-231 154,-225"/>
<polyline fill="none" stroke="black" points="154,-225 154,-213 "/>
<path fill="none" stroke="black" d="M154,-213C154,-207 160,-201 166,-201"/>
<polyline fill="none" stroke="black" points="166,-201 196,-201 "/>
<path fill="none" stroke="black" d="M196,-201C202,-201 208,-207 208,-213"/>
<polyline fill="none" stroke="black" points="208,-213 208,-225 "/>
<path fill="none" stroke="black" d="M208,-225C208,-231 202,-237 196,-237"/>
<text text-anchor="middle" x="181" y="-215.3" font-family="Times,serif" font-size="14.00">2</text>
</g>
<!-- l0&#45;&gt;l1 -->
<g id="edge32" class="edge"><title>l0&#45;&gt;l1</title>
<path fill="none" stroke="grey" stroke-dasharray="5,2" d="M80.1073,-219C98.5221,-219 123.43,-219 143.767,-219"/>
<polygon fill="grey" stroke="grey" points="143.926,-222.5 153.926,-219 143.926,-215.5 143.926,-222.5"/>
<text text-anchor="middle" x="122" y="-222.8" font-family="Times,serif" font-size="14.00">GET</text>
</g>
<!-- l2 -->
<g id="node10" class="node"><title>l2</title>
<polygon fill="lightgrey" stroke="lightgrey" points="368,-237 338,-237 326,-225 326,-213 338,-201 368,-201 380,-213 380,-225 368,-237"/>
<path fill="lightgrey" stroke="lightgrey" d="M338,-237C332,-237 326,-231 326,-225"/>
<path fill="lightgrey" stroke="lightgrey" d="M326,-213C326,-207 332,-201 338,-201"/>
<path fill="lightgrey" stroke="lightgrey" d="M368,-201C374,-201 380,-207 380,-213"/>
<path fill="lightgrey" stroke="lightgrey" d="M380,-225C380,-231 374,-237 368,-237"/>
<polyline fill="none" stroke="black" points="368,-237 338,-237 "/>
<path fill="none" stroke="black" d="M338,-237C332,-237 326,-231 326,-225"/>
<polyline fill="none" stroke="black" points="326,-225 326,-213 "/>
<path fill="none" stroke="black" d="M326,-213C326,-207 332,-201 338,-201"/>
<polyline fill="none" stroke="black" points="338,-201 368,-201 "/>
<path fill="none" stroke="black" d="M368,-201C374,-201 380,-207 380,-213"/>
<polyline fill="none" stroke="black" points="380,-213 380,-225 "/>
<path fill="none" stroke="black" d="M380,-225C380,-231 374,-237 368,-237"/>
<text text-anchor="middle" x="353" y="-215.3" font-family="Times,serif" font-size="14.00">3</text>
</g>
<!-- l1&#45;&gt;l2 -->
<g id="edge34" class="edge"><title>l1&#45;&gt;l2</title>
<path fill="none" stroke="grey" d="M208.19,-219C236.892,-219 283.14,-219 315.416,-219"/>
<polygon fill="grey" stroke="grey" points="315.78,-222.5 325.78,-219 315.78,-215.5 315.78,-222.5"/>
<text text-anchor="middle" x="260" y="-222.8" font-family="Times,serif" font-size="14.00">POST</text>
</g>
<!-- l3 -->
<g id="node11" class="node"><title>l3</title>
<polygon fill="lightgrey" stroke="lightgrey" points="536,-237 506,-237 494,-225 494,-213 506,-201 536,-201 548,-213 548,-225 536,-237"/>
<path fill="lightgrey" stroke="lightgrey" d="M506,-237C500,-237 494,-231 494,-225"/>
<path fill="lightgrey" stroke="lightgrey" d="M494,-213C494,-207 500,-201 506,-201"/>
<path fill="lightgrey" stroke="lightgrey" d="M536,-201C542,-201 548,-207 548,-213"/>
<path fill="lightgrey" stroke="lightgrey" d="M548,-225C548,-231 542,-237 536,-237"/>
<polyline fill="none" stroke="black" points="536,-237 506,-237 "/>
<path fill="none" stroke="black" d="M506,-237C500,-237 494,-231 494,-225"/>
<polyline fill="none" stroke="black" points="494,-225 494,-213 "/>
<path fill="none" stroke="black" d="M494,-213C494,-207 500,-201 506,-201"/>
<polyline fill="none" stroke="black" points="506,-201 536,-201 "/>
<path fill="none" stroke="black" d="M536,-201C542,-201 548,-207 548,-213"/>
<polyline fill="none" stroke="black" points="548,-213 548,-225 "/>
<path fill="none" stroke="black" d="M548,-225C548,-231 542,-237 536,-237"/>
<text text-anchor="middle" x="521" y="-215.3" font-family="Times,serif" font-size="14.00">4</text>
</g>
<!-- l2&#45;&gt;l3 -->
<g id="edge37" class="edge"><title>l2&#45;&gt;l3</title>
<path fill="none" stroke="black" d="M380.303,-219C408.229,-219 452.559,-219 483.778,-219"/>
<polygon fill="black" stroke="black" points="483.82,-222.5 493.82,-219 483.82,-215.5 483.82,-222.5"/>
<text text-anchor="middle" x="444" y="-222.8" font-family="Times,serif" font-size="14.00">Reg</text>
</g>
<!-- l4 -->
<g id="node12" class="node"><title>l4</title>
<polygon fill="lightgrey" stroke="lightgrey" points="677,-237 647,-237 635,-225 635,-213 647,-201 677,-201 689,-213 689,-225 677,-237"/>
<path fill="lightgrey" stroke="lightgrey" d="M647,-237C641,-237 635,-231 635,-225"/>
<path fill="lightgrey" stroke="lightgrey" d="M635,-213C635,-207 641,-201 647,-201"/>
<path fill="lightgrey" stroke="lightgrey" d="M677,-201C683,-201 689,-207 689,-213"/>
<path fill="lightgrey" stroke="lightgrey" d="M689,-225C689,-231 683,-237 677,-237"/>
<polyline fill="none" stroke="black" points="677,-237 647,-237 "/>
<path fill="none" stroke="black" d="M647,-237C641,-237 635,-231 635,-225"/>
<polyline fill="none" stroke="black" points="635,-225 635,-213 "/>
<path fill="none" stroke="black" d="M635,-213C635,-207 641,-201 647,-201"/>
<polyline fill="none" stroke="black" points="647,-201 677,-201 "/>
<path fill="none" stroke="black" d="M677,-201C683,-201 689,-207 689,-213"/>
<polyline fill="none" stroke="black" points="689,-213 689,-225 "/>
<path fill="none" stroke="black" d="M689,-225C689,-231 683,-237 677,-237"/>
<text text-anchor="middle" x="662" y="-215.3" font-family="Times,serif" font-size="14.00">5</text>
</g>
<!-- l3&#45;&gt;l4 -->
<g id="edge39" class="edge"><title>l3&#45;&gt;l4</title>
<path fill="none" stroke="blue" d="M548.145,-219C569.792,-219 600.783,-219 624.814,-219"/>
<polygon fill="blue" stroke="blue" points="624.972,-222.5 634.972,-219 624.972,-215.5 624.972,-222.5"/>
<text text-anchor="middle" x="589" y="-222.8" font-family="Times,serif" font-size="14.00">Anon</text>
</g>
</g>
</svg>
